<svg width="320" height="260" viewBox="0 0 320 260" fill="none" xmlns="http://www.w3.org/2000/svg">
  <g opacity="0.85">
    <path d="M0 260 V216 C8 206 14 222 22 210 C28 201 32 218 42 206 C50 196 55 214 66 202 C74 194 80 210 90 200 L90 260 Z" fill="#E87511"/>

    <path d="M12 200 C10 180 8 165 12 152 C14 145 20 145 21 154 C22 170 18 188 18 200 Z" fill="#E87511"/>
    <path d="M12 200 C11 210 11 219 13 226 C15 233 21 232 22 224 C23 216 22 207 21 199 Z" fill="#E87511"/>

    <path d="M45 190 C43 168 41 152 45 138 C47 131 54 131 55 140 C56 158 51 178 51 190 Z" fill="#C99A3A" opacity="0.85"/>

    <path d="M82 182 C80 155 78 135 82 118 C84 110 92 110 93 121 C94 145 88 168 88 182 Z" fill="#E87511"/>
    <path d="M82 182 C81 194 81 204 84 212 C86 219 93 218 94 209 C95 200 94 190 93 181 Z" fill="#E87511"/>

    <path d="M150 172 C148 148 146 130 150 115 C152 108 159 108 160 118 C161 140 156 160 156 172 Z" fill="#C99A3A"/>

    <path d="M225 162 C223 140 221 124 225 111 C227 105 233 105 234 113 C235 132 230 150 230 162 Z" fill="#E87511" opacity="0.85"/>
    <path d="M225 162 C224 172 224 181 226 188 C228 194 233 193 234 185 C235 178 234 170 234 161 Z" fill="#E87511" opacity="0.85"/>

    <circle cx="18" cy="120" r="3" fill="#E87511"/>
    <circle cx="60" cy="108" r="2.5" fill="#C99A3A"/>
    <circle cx="100" cy="85" r="3.5" fill="#E87511"/>
    <circle cx="135" cy="98" r="2" fill="#E87511"/>
    <circle cx="175" cy="75" r="3" fill="#C99A3A"/>
    <circle cx="210" cy="90" r="2.5" fill="#E87511"/>
    <circle cx="245" cy="80" r="3" fill="#E87511"/>
    <circle cx="35" cy="145" r="2" fill="#E87511"/>
    <circle cx="270" cy="100" r="2.5" fill="#C99A3A"/>
  </g>
</svg>
