<svg width="260" height="210" viewBox="0 0 260 210" fill="none" xmlns="http://www.w3.org/2000/svg">
  <g opacity="0.9">
    <path d="M20 10 C5 25 0 45 12 58 C2 65 0 85 18 92 C8 105 15 130 40 128 C35 150 60 165 78 148 C95 165 120 150 112 128 C138 132 150 108 132 92 C148 82 145 58 122 55 C132 32 112 12 90 22 C82 2 50 -4 38 15 C30 5 12 2 20 10 Z" fill="#E87511"/>
    <path d="M150 20 L158 45 L172 30 L162 55 L188 50 L165 68 L185 85 L158 78 L162 105 L145 82 L128 100 L135 72 L108 78 L130 60 L112 40 L138 48 Z" fill="#E87511" opacity="0.85"/>
    <circle cx="215" cy="25" r="9" fill="#E87511"/>
    <circle cx="235" cy="55" r="5" fill="#C99A3A"/>
    <circle cx="195" cy="70" r="4" fill="#E87511"/>
    <circle cx="250" cy="15" r="3" fill="#E87511"/>
    <circle cx="10" cy="150" r="6" fill="#C99A3A"/>
    <circle cx="45" cy="175" r="10" fill="#E87511"/>
    <circle cx="85" cy="190" r="5" fill="#E87511"/>
    <circle cx="115" cy="175" r="4" fill="#C99A3A"/>
    <circle cx="0" cy="100" r="4" fill="#E87511"/>
    <path d="M55 130 C52 150 48 172 54 190 C56 197 65 197 65 188 C68 168 63 148 63 128 Z" fill="#E87511"/>
    <path d="M100 138 C97 158 95 175 101 190 C103 196 110 195 110 187 C111 169 107 150 107 136 Z" fill="#C99A3A"/>
    <path d="M8 60 C5 78 3 92 8 103 C10 108 16 107 16 100 C17 86 13 70 13 58 Z" fill="#E87511"/>
    <path d="M175 95 C172 112 170 128 176 142 C178 147 184 146 184 139 C185 124 181 108 181 94 Z" fill="#E87511" opacity="0.75"/>
  </g>
</svg>
