<svg width="320" height="420" viewBox="0 0 320 420" fill="none" xmlns="http://www.w3.org/2000/svg">
  <g opacity="0.92">
    <path d="M0 0 H320 V18 C312 28 306 8 296 22 C288 33 292 5 278 19 C270 28 274 2 258 16 C248 26 252 0 236 14 C226 24 230 -1 212 12 C202 21 206 -2 188 11 C176 19 180 -3 162 9 C150 17 154 -2 134 10 C122 17 126 -3 106 12 C94 20 98 -1 78 14 C64 23 68 -1 46 16 C32 25 36 2 14 18 C6 24 8 8 0 15 Z" fill="#E87511"/>

    <path d="M20 30 C17 70 14 105 19 135 C21 148 30 148 31 133 C34 100 28 65 28 28 Z" fill="#E87511"/>
    <path d="M20 135 C19 145 19 154 21 160 C23 166 29 166 30 158 C31 150 30 141 30 133 C30 138 24 140 20 135 Z" fill="#E87511"/>

    <path d="M55 22 C52 50 49 75 54 98 C56 108 63 107 64 96 C66 72 61 46 61 20 Z" fill="#C99A3A" opacity="0.9"/>

    <path d="M95 35 C92 90 88 140 94 185 C96 200 106 200 107 183 C110 138 104 90 104 32 Z" fill="#E87511"/>
    <path d="M94 185 C93 197 93 208 96 216 C98 223 106 222 107 213 C108 203 107 192 107 183 C107 189 99 191 94 185 Z" fill="#E87511"/>

    <path d="M135 28 C132 60 130 88 135 112 C137 122 144 121 145 110 C147 84 142 55 142 26 Z" fill="#C99A3A" opacity="0.85"/>

    <path d="M170 40 C167 100 163 155 169 205 C171 220 181 220 182 203 C185 152 179 100 179 36 Z" fill="#E87511"/>
    <path d="M169 205 C168 218 168 229 171 238 C173 246 181 245 182 235 C183 224 182 213 182 203 C182 210 174 212 169 205 Z" fill="#E87511"/>

    <path d="M215 25 C212 55 210 82 215 105 C217 115 224 114 225 103 C227 78 222 50 222 22 Z" fill="#E87511" opacity="0.8"/>

    <path d="M250 32 C247 75 244 115 249 150 C251 162 259 161 260 148 C262 112 257 75 257 28 Z" fill="#C99A3A"/>
    <path d="M249 150 C248 160 248 169 251 176 C253 182 259 181 260 173 C261 164 260 155 260 148 C260 154 253 156 249 150 Z" fill="#C99A3A"/>

    <path d="M285 20 C282 45 280 68 285 88 C287 97 293 96 294 86 C296 64 292 42 292 18 Z" fill="#E87511"/>

    <circle cx="45" cy="12" r="3.5" fill="#E87511"/>
    <circle cx="78" cy="18" r="2.5" fill="#C99A3A"/>
    <circle cx="115" cy="8" r="3" fill="#E87511"/>
    <circle cx="152" cy="15" r="2" fill="#E87511"/>
    <circle cx="195" cy="10" r="4" fill="#C99A3A"/>
    <circle cx="235" cy="16" r="2.5" fill="#E87511"/>
    <circle cx="270" cy="8" r="3" fill="#E87511"/>
    <circle cx="305" cy="14" r="2.5" fill="#C99A3A"/>
    <circle cx="8" cy="55" r="2" fill="#E87511"/>
    <circle cx="70" cy="60" r="2.5" fill="#E87511"/>
    <circle cx="150" cy="65" r="2" fill="#C99A3A"/>
    <circle cx="240" cy="70" r="2.5" fill="#E87511"/>
  </g>
</svg>
